<svg width="111" height="54" viewBox="0 0 111 54" fill="none" xmlns="http://www.w3.org/2000/svg">
<g filter="url(#filter0_d_221_1281)">
<path fill-rule="evenodd" clip-rule="evenodd" d="M16.2752 35.2855L11.5713 37.448L6.96229 43.6274L5.31708 43.9495L4.96952 42.155L4.73781 40.9587L7.04111 40.5078L6.86733 39.6106L7.85445 39.4174L7.62274 38.2211L8.93891 37.9634L8.70721 36.7671L10.3524 36.445L9.36766 31.3608L13.2003 29.9896L15.638 31.9957L16.2752 35.2855ZM14.6114 33.7487L12.3082 34.1997L12.5607 31.9773L14.206 31.6552L14.6114 33.7487Z" fill="#D9D9D9" stroke="black"/>
<path fill-rule="evenodd" clip-rule="evenodd" d="M16.1508 35.2855L20.8547 37.448L25.4637 43.6274L27.1089 43.9495L27.4564 42.155L27.6882 40.9587L25.3849 40.5078L25.5586 39.6106L24.5715 39.4174L24.8032 38.2211L23.4871 37.9634L23.7188 36.7671L22.0735 36.445L23.0583 31.3608L19.2256 29.9896L16.788 31.9957L16.1508 35.2855ZM17.8145 33.7487L20.1178 34.1997L19.8652 31.9773L18.22 31.6552L17.8145 33.7487Z" fill="#D9D9D9" stroke="black"/>
<path fill-rule="evenodd" clip-rule="evenodd" d="M12.356 33.9192L15.2971 38.1969L16.1125 45.877L17.3622 47L18.574 45.637L19.3819 44.7283L17.6323 43.1561L18.2382 42.4746L17.4884 41.8008L18.2963 40.8921L17.2966 39.9937L18.1045 39.0851L16.8548 37.9621L20.2883 34.1002L17.693 30.9507L14.5777 31.4204L12.356 33.9192ZM14.5676 33.4546L16.3171 35.0268L17.231 32.9875L15.9813 31.8645L14.5676 33.4546Z" fill="#F05112" stroke="black"/>
<path fill-rule="evenodd" clip-rule="evenodd" d="M18.3007 16.4255L11.4815 16.5091L11.2945 1.08355L18.1136 0.999951L18.3007 16.4255ZM16.0138 3.59701C16.0068 4.49281 15.8192 4.84952 14.7508 4.89815C13.9199 4.86372 13.4571 4.84002 13.4566 3.62835C13.6231 2.74457 13.9684 2.53873 14.7196 2.32722C15.7061 2.48921 15.9091 2.82597 16.0138 3.59701Z" fill="#F05112" stroke="black"/>
<path d="M71.1968 27.889V11.6052L77.164 19.7471L82.2788 11.6052V28.746" stroke="black" stroke-width="2"/>
<path d="M95.0657 12.4624H101.033M107 12.4624H101.033M101.033 12.4624V28.3177" stroke="black" stroke-width="2"/>
<path d="M55.8524 11.6052H47.3278V27.889H55.8524V11.6052Z" stroke="black" stroke-width="2"/>
<path d="M67.7868 11.6052H59.2622V27.889H67.7868V11.6052Z" stroke="black" stroke-width="2"/>
<path d="M34.9672 12.0338H25.5901C25.605 9.58684 25.1688 9.31589 24.3114 9.03415H15.7868C14.3836 9.60018 14.0262 10.3728 13.6556 12.0338V16.319H8.54086C6.03756 16.3169 5.62646 16.6387 5.55725 18.4616C5.56112 20.9509 6.31808 21.7301 8.54086 21.4612H18.3442C19.4755 21.9931 20.0491 22.7468 20.0491 24.0324C20.0491 25.3179 19.2956 25.9176 18.3442 26.175C19.5736 26.5134 19.9706 27.0619 20.0491 28.7461C19.929 30.1528 19.6685 30.8027 17.7048 30.8887H24.3114C25.6497 30.5378 25.7964 29.6302 25.5901 27.4605H34.9672V12.0338Z" fill="white"/>
<path d="M6.83594 13.7479C6.83594 13.7479 6.5145 16.0743 8.54086 16.319H13.6556V12.0338H8.54086C6.8477 12.0207 6.83594 13.7479 6.83594 13.7479Z" fill="white"/>
<path d="M6.83594 24.0324C6.83594 25.5387 6.7972 25.5145 9.81956 26.175H18.3442C19.2956 25.9176 20.0491 25.3179 20.0491 24.0324C20.0491 22.7468 19.4755 21.9931 18.3442 21.4612H8.54086C6.89915 21.9917 6.83594 22.5261 6.83594 24.0324Z" fill="white"/>
<path d="M8.54086 28.7461C8.64524 30.3705 9.24465 30.8114 11.0982 30.8887H17.7048C19.6685 30.8027 19.929 30.1528 20.0491 28.7461C19.9706 27.0619 19.5736 26.5134 18.3442 26.175H9.81956C8.76226 26.4633 8.35738 26.8613 8.54086 28.7461Z" fill="white"/>
<path d="M9.81956 26.175C8.76226 26.4633 8.35738 26.8613 8.54086 28.7461C8.64524 30.3705 9.24465 30.8114 11.0982 30.8887H17.7048M9.81956 26.175C6.7972 25.5145 6.83594 25.5387 6.83594 24.0324C6.83594 22.5261 6.89915 21.9917 8.54086 21.4612M9.81956 26.175H18.3442M8.54086 21.4612C6.31808 21.7301 5.56112 20.9509 5.55725 18.4616C5.62646 16.6387 6.03756 16.3169 8.54086 16.319M8.54086 21.4612H18.3442C19.4755 21.9931 20.0491 22.7468 20.0491 24.0324C20.0491 25.3179 19.2956 25.9176 18.3442 26.175M8.54086 16.319C6.5145 16.0743 6.83594 13.7479 6.83594 13.7479C6.83594 13.7479 6.8477 12.0207 8.54086 12.0338H13.6556M8.54086 16.319H13.6556M13.6556 12.0338C14.0262 10.3728 14.3836 9.60018 15.7868 9.03415H24.3114C25.1688 9.31589 25.605 9.58684 25.5901 12.0338H34.9672V27.4605H25.5901C25.7964 29.6302 25.6497 30.5378 24.3114 30.8887H17.7048M13.6556 12.0338V16.319M13.6556 16.319V19.3186C14.0097 20.4595 14.5078 20.8848 16.213 21.0327C17.9235 21.1281 18.7289 20.9659 19.1966 19.3186V16.5333M18.3442 26.175C19.5736 26.5134 19.9706 27.0619 20.0491 28.7461C19.929 30.1528 19.6685 30.8027 17.7048 30.8887M19.1966 13.7479V16.5333M19.1966 16.5333C21.9402 16.2742 22.8439 16.8936 23.0327 19.7472M34.9672 32.1742V7.32007" stroke="black"/>
<path d="M35.3933 11.6052C35.3933 11.6052 37.0982 11.6052 40.5081 11.6052C43.9179 11.6052 44.9187 17.7181 40.5081 20.1756H39.2294M35.3933 20.1756H39.2294M39.2294 20.1756L43.9179 27.889" stroke="black" stroke-width="2"/>
<path d="M93.3607 11.6052V28.3175" stroke="black" stroke-width="2"/>
</g>
<defs>
<filter id="filter0_d_221_1281" x="-1" y="0.493896" width="112" height="55.2139" filterUnits="userSpaceOnUse" color-interpolation-filters="sRGB">
<feFlood flood-opacity="0" result="BackgroundImageFix"/>
<feColorMatrix in="SourceAlpha" type="matrix" values="0 0 0 0 0 0 0 0 0 0 0 0 0 0 0 0 0 0 127 0" result="hardAlpha"/>
<feOffset dy="4"/>
<feGaussianBlur stdDeviation="2"/>
<feComposite in2="hardAlpha" operator="out"/>
<feColorMatrix type="matrix" values="0 0 0 0 0 0 0 0 0 0 0 0 0 0 0 0 0 0 0.25 0"/>
<feBlend mode="normal" in2="BackgroundImageFix" result="effect1_dropShadow_221_1281"/>
<feBlend mode="normal" in="SourceGraphic" in2="effect1_dropShadow_221_1281" result="shape"/>
</filter>
</defs>
</svg>
